# xmcd
#
# Track frame offsets:
#	150
#	17844
#	31996
#	51254
#	81663
#	91867
#	104228
#	115319
#	115652
#	131980
#	147234
#	161677
#	173177
#	185190
#	200256
#	215761
#	225208
#	235952
#	249970
#	267203
#	277753
#
# Disc length: 4064
#
# Revision: 1
# Processed by: cddbd v1.5.1PL0 Copyright (c) Steve Scherf et al.
# Submitted via: dBpowerAMP V4.0
# Normalized: r0:TRMNUM
#
DISCID=310fde15
DTITLE=Valentin "el Gallo de Oro"Elizalde - Corridos
DYEAR=2004
DGENRE=Folklore
TTITLE0=Corrido Al Gallo Elizalde
TTITLE1=Regalo Caro
TTITLE2=Juan Martha
TTITLE3=Clave Privada
TTITLE4=Se Le Pelo Baltazar
TTITLE5=Catarino Y Los Rurales
TTITLE6=Ayer Baje De La Sierra
TTITLE7=Carta Blanca
TTITLE8=Los Sinaloenses
TTITLE9=La Rubia Y La Morena
TTITLE10=Las Tres Mujeres
TTITLE11=El Compa Chuy
TTITLE12=El Escape Del Chapo
TTITLE13=El Señor
TTITLE14=El Corrido De Carlos
TTITLE15=El Carro Bomba
TTITLE16=Lalo El De Guadalajara
TTITLE17=El Sinaloense
TTITLE18=Con La Tierra Encima
TTITLE19=Corrido Perron
TTITLE20=Popurri
EXTD=
EXTT0=
EXTT1=
EXTT2=
EXTT3=
EXTT4=
EXTT5=
EXTT6=
EXTT7=
EXTT8=
EXTT9=
EXTT10=
EXTT11=
EXTT12=
EXTT13=
EXTT14=
EXTT15=
EXTT16=
EXTT17=
EXTT18=
EXTT19=
EXTT20=
PLAYORDER=
